<svg width="56" height="57" viewBox="0 0 56 57" fill="none" xmlns="http://www.w3.org/2000/svg">
<g id="Frame">
<path id="Vector" d="M26.1975 48.4511C26.1029 48.8297 25.8844 49.1658 25.5769 49.406C25.2693 49.6462 24.8903 49.7767 24.5 49.7767C24.3526 49.7774 24.2056 49.7598 24.0625 49.7242L17.0625 47.9742C16.8676 47.9253 16.6827 47.8431 16.5157 47.7314L11.2657 44.2314C10.8796 43.9738 10.6116 43.5734 10.5207 43.1183C10.4299 42.6631 10.5235 42.1905 10.7811 41.8044C11.0387 41.4183 11.4391 41.1503 11.8943 41.0595C12.3494 40.9686 12.8221 41.0623 13.2082 41.3199L18.2044 44.6514L24.9113 46.3292C25.1354 46.3836 25.3465 46.4816 25.5326 46.6178C25.7186 46.754 25.8759 46.9256 25.9955 47.1228C26.115 47.32 26.1944 47.5388 26.2291 47.7668C26.2637 47.9947 26.253 48.2273 26.1975 48.4511ZM55.2235 27.3505C55.0799 27.7866 54.8513 28.19 54.5509 28.5373C54.2506 28.8846 53.8843 29.1689 53.4735 29.3739L48.2935 31.9639L44.9947 35.2649L36.2447 44.0149C36.0309 44.2285 35.7653 44.3831 35.474 44.4636C35.1826 44.5441 34.8754 44.5478 34.5822 44.4742L20.5822 40.9742C20.3693 40.9208 20.1683 40.828 19.9894 40.7008L7.8444 32.0295L2.53316 29.3739C1.70308 28.959 1.07178 28.2313 0.778066 27.351C0.484355 26.4707 0.55228 25.5098 0.966905 24.6795L6.40284 13.8099C6.8178 12.9798 7.54543 12.3485 8.42574 12.0548C9.30605 11.7611 10.267 11.829 11.0972 12.2436L15.9228 14.6499L27.5166 11.338C27.8311 11.248 28.1646 11.248 28.4791 11.338L40.0728 14.6499L44.8985 12.2436C45.7287 11.829 46.6896 11.7611 47.5699 12.0548C48.4503 12.3485 49.1779 12.9798 49.5928 13.8099L55.0288 24.6795C55.2361 25.0898 55.3601 25.5371 55.3935 25.9955C55.4269 26.454 55.3691 26.9145 55.2235 27.3505ZM41.125 34.1711L35.0635 29.317C30.7891 32.817 25.3619 33.2786 20.8644 30.4108C20.422 30.1294 20.0485 29.7522 19.7714 29.307C19.4944 28.8618 19.3209 28.3601 19.2638 27.8389C19.2066 27.3177 19.2674 26.7903 19.4414 26.2957C19.6155 25.8011 19.8984 25.352 20.2694 24.9814C20.2747 24.975 20.2805 24.9692 20.2869 24.9639L30.1 15.4461L28 14.8467L16.9707 17.9989L10.9835 29.9711L21.746 37.6602L34.4641 40.8386L41.125 34.1711ZM45.115 30.1811L39.1694 18.2767H32.2088L22.75 27.4642C25.5194 29.2339 29.8616 29.7217 33.7575 25.7952C34.0618 25.4885 34.4688 25.3052 34.9001 25.2805C35.3314 25.2559 35.7566 25.3917 36.0938 25.6617L43.621 31.6927L45.115 30.1811Z" fill="#0D7F8C"/>
</g>
</svg>
