<svg width="56" height="57" viewBox="0 0 56 57" fill="none" xmlns="http://www.w3.org/2000/svg">
<g id="Frame">
<path id="Vector" d="M49.4069 23.2687C48.5822 22.4069 47.7291 21.5187 47.4075 20.7378C47.11 20.0225 47.0925 18.8369 47.075 17.6884C47.0422 15.5534 47.0072 13.134 45.325 11.4519C43.6428 9.76967 41.2234 9.73467 39.0884 9.70186C37.94 9.68436 36.7544 9.66686 36.0391 9.36936C35.2603 9.04779 34.37 8.19467 33.5081 7.36998C31.9987 5.91967 30.2838 4.27686 28 4.27686C25.7162 4.27686 24.0034 5.91967 22.4919 7.36998C21.63 8.19467 20.7419 9.04779 19.9609 9.36936C19.25 9.66686 18.06 9.68436 16.9116 9.70186C14.7766 9.73467 12.3572 9.76967 10.675 11.4519C8.99281 13.134 8.96875 15.5534 8.925 17.6884C8.9075 18.8369 8.89 20.0225 8.5925 20.7378C8.27094 21.5165 7.41781 22.4069 6.59312 23.2687C5.14281 24.7781 3.5 26.4931 3.5 28.7769C3.5 31.0606 5.14281 32.7734 6.59312 34.285C7.41781 35.1469 8.27094 36.035 8.5925 36.8159C8.89 37.5312 8.9075 38.7169 8.925 39.8653C8.95781 42.0003 8.99281 44.4197 10.675 46.1019C12.3572 47.784 14.7766 47.819 16.9116 47.8519C18.06 47.8694 19.2456 47.8869 19.9609 48.1844C20.7397 48.5059 21.63 49.359 22.4919 50.1837C24.0012 51.634 25.7162 53.2769 28 53.2769C30.2838 53.2769 31.9966 51.634 33.5081 50.1837C34.37 49.359 35.2581 48.5059 36.0391 48.1844C36.7544 47.8869 37.94 47.8694 39.0884 47.8519C41.2234 47.819 43.6428 47.784 45.325 46.1019C47.0072 44.4197 47.0422 42.0003 47.075 39.8653C47.0925 38.7169 47.11 37.5312 47.4075 36.8159C47.7291 36.0372 48.5822 35.1469 49.4069 34.285C50.8572 32.7756 52.5 31.0606 52.5 28.7769C52.5 26.4931 50.8572 24.7803 49.4069 23.2687ZM37.9881 24.765L25.7381 37.015C25.5756 37.1777 25.3826 37.3068 25.1701 37.3948C24.9577 37.4829 24.73 37.5282 24.5 37.5282C24.27 37.5282 24.0423 37.4829 23.8299 37.3948C23.6174 37.3068 23.4244 37.1777 23.2619 37.015L18.0119 31.765C17.6835 31.4366 17.499 30.9912 17.499 30.5269C17.499 30.0625 17.6835 29.6171 18.0119 29.2887C18.3402 28.9604 18.7856 28.7759 19.25 28.7759C19.7144 28.7759 20.1598 28.9604 20.4881 29.2887L24.5 33.3028L35.5119 22.2887C35.6745 22.1261 35.8675 21.9972 36.0799 21.9092C36.2924 21.8212 36.5201 21.7759 36.75 21.7759C36.9799 21.7759 37.2076 21.8212 37.4201 21.9092C37.6325 21.9972 37.8255 22.1261 37.9881 22.2887C38.1507 22.4513 38.2797 22.6443 38.3677 22.8568C38.4557 23.0692 38.501 23.2969 38.501 23.5269C38.501 23.7568 38.4557 23.9845 38.3677 24.1969C38.2797 24.4094 38.1507 24.6024 37.9881 24.765Z" fill="#278D5C"/>
</g>
</svg>
