<svg width="56" height="57" viewBox="0 0 56 57" fill="none" xmlns="http://www.w3.org/2000/svg">
<g id="Frame">
<path id="Vector" d="M47.25 32.2769H43.75V18.2769H47.25C47.7141 18.2769 48.1592 18.0925 48.4874 17.7643C48.8156 17.4361 49 16.991 49 16.5269C49 16.0627 48.8156 15.6176 48.4874 15.2894C48.1592 14.9612 47.7141 14.7769 47.25 14.7769H43.75V9.52686C43.75 8.5986 43.3812 7.70836 42.7249 7.05198C42.0685 6.3956 41.1783 6.02686 40.25 6.02686H15.75C14.8217 6.02686 13.9315 6.3956 13.2751 7.05198C12.6187 7.70836 12.25 8.5986 12.25 9.52686V14.7769H8.75C8.28587 14.7769 7.84075 14.9612 7.51256 15.2894C7.18437 15.6176 7 16.0627 7 16.5269C7 16.991 7.18437 17.4361 7.51256 17.7643C7.84075 18.0925 8.28587 18.2769 8.75 18.2769H12.25V32.2769H8.75C8.28587 32.2769 7.84075 32.4612 7.51256 32.7894C7.18437 33.1176 7 33.5627 7 34.0269C7 34.491 7.18437 34.9361 7.51256 35.2643C7.84075 35.5925 8.28587 35.7769 8.75 35.7769H12.25V48.0269C12.25 48.9551 12.6187 49.8454 13.2751 50.5017C13.9315 51.1581 14.8217 51.5269 15.75 51.5269H40.25C41.1783 51.5269 42.0685 51.1581 42.7249 50.5017C43.3812 49.8454 43.75 48.9551 43.75 48.0269V35.7769H47.25C47.7141 35.7769 48.1592 35.5925 48.4874 35.2643C48.8156 34.9361 49 34.491 49 34.0269C49 33.5627 48.8156 33.1176 48.4874 32.7894C48.1592 32.4612 47.7141 32.2769 47.25 32.2769ZM28 26.1519C26.7886 26.1519 25.6044 25.7926 24.5971 25.1196C23.5899 24.4466 22.8048 23.49 22.3412 22.3708C21.8777 21.2516 21.7564 20.0201 21.9927 18.8319C22.229 17.6438 22.8124 16.5524 23.669 15.6958C24.5256 14.8392 25.6169 14.2559 26.8051 14.0195C27.9932 13.7832 29.2247 13.9045 30.3439 14.3681C31.4631 14.8317 32.4197 15.6167 33.0928 16.624C33.7658 17.6312 34.125 18.8154 34.125 20.0269C34.125 21.6513 33.4797 23.2092 32.331 24.3579C31.1824 25.5065 29.6245 26.1519 28 26.1519ZM28 31.4019C29.2114 31.4019 30.3956 31.7611 31.4029 32.4341C32.4101 33.1071 33.1952 34.0637 33.6588 35.1829C34.1223 36.3021 34.2436 37.5336 34.0073 38.7218C33.771 39.9099 33.1876 41.0013 32.331 41.8579C31.4744 42.7145 30.3831 43.2978 29.1949 43.5342C28.0068 43.7705 26.7753 43.6492 25.6561 43.1856C24.5369 42.722 23.5803 41.937 22.9072 40.9297C22.2342 39.9225 21.875 38.7383 21.875 37.5269C21.875 35.9024 22.5203 34.3445 23.669 33.1958C24.8176 32.0472 26.3755 31.4019 28 31.4019Z" fill="#6F6FA6"/>
</g>
</svg>
