<svg width="268" height="273" viewBox="0 0 268 273" fill="none" xmlns="http://www.w3.org/2000/svg">
<g id="Group 43">
<g id="Rectangle 34624145" filter="url(#filter0_d_622_3368)">
<rect x="6.87036" y="26.1919" width="238.498" height="244.177" rx="5.67853" transform="rotate(-4.6377 6.87036 26.1919)" fill="#EEECEC"/>
</g>
<g id="Group 40">
<circle id="Ellipse 229" cx="10.6288" cy="28.7359" r="9.21899" transform="rotate(-4.6377 10.6288 28.7359)" fill="#EEECEC"/>
<circle id="Ellipse 230" cx="26.7001" cy="27.4322" r="9.21899" transform="rotate(-4.6377 26.7001 27.4322)" fill="#EEECEC"/>
<circle id="Ellipse 231" cx="42.7714" cy="26.1285" r="9.21899" transform="rotate(-4.6377 42.7714 26.1285)" fill="#EEECEC"/>
<circle id="Ellipse 232" cx="58.8431" cy="24.8248" r="9.21899" transform="rotate(-4.6377 58.8431 24.8248)" fill="#EEECEC"/>
<circle id="Ellipse 233" cx="74.9142" cy="23.521" r="9.21899" transform="rotate(-4.6377 74.9142 23.521)" fill="#EEECEC"/>
<circle id="Ellipse 234" cx="90.9857" cy="22.2173" r="9.21899" transform="rotate(-4.6377 90.9857 22.2173)" fill="#EEECEC"/>
<circle id="Ellipse 235" cx="107.057" cy="20.9136" r="9.21899" transform="rotate(-4.6377 107.057 20.9136)" fill="#EEECEC"/>
<circle id="Ellipse 236" cx="123.129" cy="19.6099" r="9.21899" transform="rotate(-4.6377 123.129 19.6099)" fill="#EEECEC"/>
<circle id="Ellipse 237" cx="139.2" cy="18.3062" r="9.21899" transform="rotate(-4.6377 139.2 18.3062)" fill="#EEECEC"/>
<circle id="Ellipse 238" cx="155.271" cy="17.0025" r="9.21899" transform="rotate(-4.6377 155.271 17.0025)" fill="#EEECEC"/>
<circle id="Ellipse 239" cx="171.343" cy="15.6988" r="9.21899" transform="rotate(-4.6377 171.343 15.6988)" fill="#EEECEC"/>
<circle id="Ellipse 240" cx="187.414" cy="14.3951" r="9.21899" transform="rotate(-4.6377 187.414 14.3951)" fill="#EEECEC"/>
<circle id="Ellipse 241" cx="203.486" cy="13.0909" r="9.21899" transform="rotate(-4.6377 203.486 13.0909)" fill="#EEECEC"/>
<circle id="Ellipse 242" cx="219.557" cy="11.7876" r="9.21899" transform="rotate(-4.6377 219.557 11.7876)" fill="#EEECEC"/>
<circle id="Ellipse 243" cx="235.628" cy="10.4839" r="9.21899" transform="rotate(-4.6377 235.628 10.4839)" fill="#EEECEC"/>
</g>
<g id="Group 41">
<circle id="Ellipse 229_2" cx="29.3772" cy="259.854" r="9.46019" transform="rotate(-94.6377 29.3772 259.854)" fill="#EEECEC"/>
<circle id="Ellipse 230_2" cx="28.0391" cy="243.362" r="9.46019" transform="rotate(-94.6377 28.0391 243.362)" fill="#EEECEC"/>
<circle id="Ellipse 231_2" cx="26.7012" cy="226.87" r="9.46019" transform="rotate(-94.6377 26.7012 226.87)" fill="#EEECEC"/>
<circle id="Ellipse 232_2" cx="25.3635" cy="210.379" r="9.46019" transform="rotate(-94.6377 25.3635 210.379)" fill="#EEECEC"/>
<circle id="Ellipse 233_2" cx="24.0256" cy="193.886" r="9.46019" transform="rotate(-94.6377 24.0256 193.886)" fill="#EEECEC"/>
<circle id="Ellipse 234_2" cx="22.6877" cy="177.395" r="9.46019" transform="rotate(-94.6377 22.6877 177.395)" fill="#EEECEC"/>
<circle id="Ellipse 235_2" cx="21.3499" cy="160.903" r="9.46019" transform="rotate(-94.6377 21.3499 160.903)" fill="#EEECEC"/>
<circle id="Ellipse 236_2" cx="20.0122" cy="144.411" r="9.46019" transform="rotate(-94.6377 20.0122 144.411)" fill="#EEECEC"/>
<circle id="Ellipse 237_2" cx="18.6746" cy="127.919" r="9.46019" transform="rotate(-94.6377 18.6746 127.919)" fill="#EEECEC"/>
<circle id="Ellipse 238_2" cx="17.3364" cy="111.427" r="9.46019" transform="rotate(-94.6377 17.3364 111.427)" fill="#EEECEC"/>
<circle id="Ellipse 239_2" cx="15.9988" cy="94.9353" r="9.46019" transform="rotate(-94.6377 15.9988 94.9353)" fill="#EEECEC"/>
<circle id="Ellipse 240_2" cx="14.6609" cy="78.4436" r="9.46019" transform="rotate(-94.6377 14.6609 78.4436)" fill="#EEECEC"/>
<circle id="Ellipse 241_2" cx="13.3232" cy="61.9514" r="9.46019" transform="rotate(-94.6377 13.3232 61.9514)" fill="#EEECEC"/>
<circle id="Ellipse 242_2" cx="11.9851" cy="45.4597" r="9.46019" transform="rotate(-94.6377 11.9851 45.4597)" fill="#EEECEC"/>
<circle id="Ellipse 243_2" cx="10.6475" cy="28.9675" r="9.46019" transform="rotate(-94.6377 10.6475 28.9675)" fill="#EEECEC"/>
</g>
</g>
<defs>
<filter id="filter0_d_622_3368" x="3.75152" y="3.78961" width="263.698" height="268.898" filterUnits="userSpaceOnUse" color-interpolation-filters="sRGB">
<feFlood flood-opacity="0" result="BackgroundImageFix"/>
<feColorMatrix in="SourceAlpha" type="matrix" values="0 0 0 0 0 0 0 0 0 0 0 0 0 0 0 0 0 0 127 0" result="hardAlpha"/>
<feOffset/>
<feGaussianBlur stdDeviation="1.77951"/>
<feComposite in2="hardAlpha" operator="out"/>
<feColorMatrix type="matrix" values="0 0 0 0 0 0 0 0 0 0 0 0 0 0 0 0 0 0 0.08 0"/>
<feBlend mode="normal" in2="BackgroundImageFix" result="effect1_dropShadow_622_3368"/>
<feBlend mode="normal" in="SourceGraphic" in2="effect1_dropShadow_622_3368" result="shape"/>
</filter>
</defs>
</svg>
